<?xml version="1.0" encoding="UTF-8"?>
<svg version="1.1" xmlns="http://www.w3.org/2000/svg" width="500" height="500">
<path d="M0 0 C165 0 330 0 500 0 C500 165 500 330 500 500 C335 500 170 500 0 500 C0 335 0 170 0 0 Z " fill="#FEFEFE" transform="translate(0,0)"/>
<path d="M0 0 C1.04534912 -0.01039307 2.09069824 -0.02078613 3.16772461 -0.03149414 C19.37580236 0.15395297 35.89715839 6.97354466 48.3125 17.4375 C48.3125 18.0975 48.3125 18.7575 48.3125 19.4375 C48.88484375 19.67210938 49.4571875 19.90671875 50.046875 20.1484375 C60.84472614 26.29204246 67.78976566 42.65476683 71.3125 54.0625 C75.56956134 74.05695583 71.95264402 95.7933879 61.0390625 113.03125 C51.09173821 126.89448929 38.30593923 137.16783898 22 142.375 C21.34257812 142.58656738 20.68515625 142.79813477 20.0078125 143.01611328 C15.6813241 144.29985668 11.80949612 144.62948043 7.3125 144.4375 C7.49425781 145.14390625 7.67601562 145.8503125 7.86328125 146.578125 C9.75190962 154.28760284 11.05729608 161.96908864 12.18017578 169.82104492 C13.17350267 176.70824221 14.41053119 183.52242678 15.76171875 190.34765625 C16.3125 193.4375 16.3125 193.4375 16.3125 196.4375 C15.6525 196.4375 14.9925 196.4375 14.3125 196.4375 C11.68403715 184.22163778 9.15321997 171.99713737 7 159.6875 C6.82887695 158.71868896 6.65775391 157.74987793 6.48144531 156.75170898 C6.32643555 155.84880127 6.17142578 154.94589355 6.01171875 154.015625 C5.80808716 152.83081543 5.80808716 152.83081543 5.6003418 151.62207031 C5.3125 149.4375 5.3125 149.4375 5.3125 145.4375 C4.66925781 145.46070313 4.02601563 145.48390625 3.36328125 145.5078125 C-17.24611162 145.91941236 -35.65075777 139.19467001 -50.63208008 124.98144531 C-64.18010611 111.53336548 -71.74581498 94.71086362 -72.11865234 75.56884766 C-72.16287144 53.31983905 -65.97339691 36.55973934 -50.515625 20.12890625 C-36.35070111 6.41554873 -19.47014675 0.17252931 0 0 Z " fill="#508F31" transform="translate(239.6875,33.5625)"/>
<path d="M0 0 C0 0.66 0 1.32 0 2 C-1.81640625 3.3828125 -1.81640625 3.3828125 -4.5625 5.125 C-10.71824345 9.12298578 -16.73955795 13.28701173 -22.75 17.5 C-32.17387113 24.08921938 -41.69158514 30.51605395 -51.28222656 36.859375 C-52.23452148 37.48972656 -53.18681641 38.12007813 -54.16796875 38.76953125 C-55.00610107 39.32229736 -55.8442334 39.87506348 -56.70776367 40.44458008 C-58.85688865 41.90289036 -60.9370072 43.42287092 -63 45 C-62.04507991 49.85712439 -59.62350039 54.09767487 -57.47265625 58.515625 C-51.69577349 72.18400544 -51.39263009 91.35813082 -56.75390625 105.234375 C-57.37072266 106.60335937 -57.37072266 106.60335937 -58 108 C-58.40089844 108.99515625 -58.80179687 109.9903125 -59.21484375 111.015625 C-66.68999624 127.91596975 -81.7857397 139.37352196 -98.625 146.0390625 C-112.67943888 150.41064669 -130.51826491 149.92379269 -144 144 C-144.99773437 143.59910156 -145.99546875 143.19820312 -147.0234375 142.78515625 C-162.90906472 135.74075858 -174.31300913 121.75203016 -181 106 C-186.55804946 91.14249037 -186.58943544 73.52598998 -180.8125 58.75 C-172.51770005 40.81788912 -160.01805077 28.08168998 -141.69140625 20.66015625 C-129.36270354 16.33510573 -115.61973245 15.05376445 -103 19 C-101.91976562 19.33 -100.83953125 19.66 -99.7265625 20 C-87.06040247 24.17626101 -78.24186919 30.15628037 -69.41015625 39.9375 C-68.61480469 40.618125 -67.81945312 41.29875 -67 42 C-63.38641536 41.66763318 -60.80848203 39.73999626 -57.8515625 37.75390625 C-56.85342529 37.08657471 -55.85528809 36.41924316 -54.8269043 35.73168945 C-53.77027588 35.01585693 -52.71364746 34.30002441 -51.625 33.5625 C-50.53807861 32.83184326 -49.45115723 32.10118652 -48.33129883 31.34838867 C-41.65082655 26.84174855 -35.0480623 22.24787046 -28.5234375 17.51953125 C-4.21913501 0 -4.21913501 0 0 0 Z " fill="#3095B7" transform="translate(230,318)"/>
<path d="M0 0 C8.533758 6.23199208 14.54432774 14.58880315 16.80859375 24.9921875 C18.62799532 37.9750777 15.20943613 47.94689731 9.125 59.25 C9.86282715 59.52481201 10.6006543 59.79962402 11.36083984 60.08276367 C13.93913312 61.17151302 16.03692789 62.36674613 18.3515625 63.92578125 C19.61661621 64.77305786 19.61661621 64.77305786 20.90722656 65.63745117 C21.8453418 66.27271729 22.78345703 66.9079834 23.75 67.5625 C24.77577148 68.25126221 25.80154297 68.94002441 26.85839844 69.6496582 C30.61893953 72.17570428 34.37223726 74.71241758 38.125 77.25 C38.87060181 77.75414429 39.61620361 78.25828857 40.38439941 78.77770996 C41.99003837 79.86340249 43.59566962 80.9491064 45.20129395 82.03482056 C49.59187478 85.00334941 53.98328334 87.97065184 58.375 90.9375 C59.28318481 91.55123474 60.19136963 92.16496948 61.1270752 92.79730225 C77.28048614 103.70892248 93.52363791 114.47966837 109.81738281 125.18041992 C110.67247437 125.74203323 111.52756592 126.30364655 112.40856934 126.88227844 C114.09341515 127.9888323 115.77838975 129.09519009 117.46350098 130.20133972 C124.84600178 135.05317935 132.19504348 139.95468331 139.53231812 144.87461853 C140.36679474 145.43298904 141.20127136 145.99135956 142.06103516 146.56665039 C142.79907379 147.06161514 143.53711243 147.5565799 144.29751587 148.06654358 C146.11325371 149.29029436 146.11325371 149.29029436 148.125 150.25 C147.795 151.24 147.465 152.23 147.125 153.25 C136.69120025 146.6959704 126.41294367 139.90455687 116.125 133.125 C115.16637054 132.49362122 114.20774109 131.86224243 113.22006226 131.21173096 C99.78787498 122.36065826 86.41111581 113.43180024 73.08792114 104.41757202 C67.80189857 100.84245106 62.51050373 97.27528483 57.21888733 93.70845032 C52.58369786 90.58394039 47.95098854 87.45586074 43.32226562 84.32177734 C38.53609377 81.08331071 33.73864513 77.86219089 28.93319702 74.65240479 C27.11375344 73.43318688 25.29811563 72.2082689 23.48648071 70.97747803 C20.99160379 69.28369451 18.48420851 67.61032459 15.97265625 65.94140625 C15.23311707 65.4326445 14.49357788 64.92388275 13.73162842 64.39970398 C11.47630993 62.86557735 11.47630993 62.86557735 8.125 61.25 C5.2829175 62.28371914 3.531078 63.72018825 1.125 65.625 C-8.63247745 72.56227827 -20.2799183 73.60523078 -31.875 72.25 C-41.69381494 70.08370793 -49.90166994 63.506118 -55.59375 55.36328125 C-61.87279774 45.00668116 -63.83898402 33.71908229 -61.07421875 21.796875 C-57.33181142 10.94260768 -50.55928985 2.94959971 -40.48046875 -2.56640625 C-26.69958421 -8.82668813 -12.99634671 -8.11717218 0 0 Z " fill="#AF1015" transform="translate(63.875,68.75)"/>
<path d="M0 0 C6.27610964 3.82307718 12.29037521 7.87219476 18.1875 12.25 C24.00036406 16.56499357 29.89762131 20.72417425 35.87768555 24.80371094 C40.78592816 28.15533438 45.65165603 31.56236522 50.5 35 C56.81962539 39.48060786 63.17989195 43.89617957 69.58691406 48.25097656 C73.08099226 50.63627199 76.44779904 53.10091457 79.75 55.75 C82.61482227 58.24742873 82.61482227 58.24742873 84.96875 57.8203125 C87.27850235 56.8875279 88.83571375 55.71496503 90.75 54.125 C97.74890165 48.73028283 105.59695224 46.4365318 114.44140625 47.21484375 C124.17737304 48.8146505 132.97026574 53.04837963 139 61 C145.25942862 70.07686545 146.27974373 78.34282375 145 89 C142.99066099 97.46154985 137.76071997 105.60766781 130.796875 110.90234375 C121.43932082 116.61858881 110.82911536 117.63286798 100.171875 115.41015625 C91.33968541 112.3966576 84.14433612 105.89360892 79.9375 97.625 C76.18516414 89.21228971 75.00480625 78.60683259 78.15234375 69.76171875 C79.5625 67.125 79.5625 67.125 81.00390625 64.8828125 C81.33261719 64.26148438 81.66132813 63.64015625 82 63 C80.78540303 59.35620908 79.7001329 58.82629499 76.57421875 56.69921875 C75.64262939 56.05903809 74.71104004 55.41885742 73.7512207 54.75927734 C72.74019287 54.07559082 71.72916504 53.3919043 70.6875 52.6875 C68.57007194 51.23602795 66.45288866 49.78419877 64.3359375 48.33203125 C63.26827148 47.60322754 62.20060547 46.87442383 61.10058594 46.12353516 C56.64779106 43.07389659 52.22893158 39.97695415 47.8125 36.875 C46.1745708 35.72773374 44.53655004 34.5805982 42.8984375 33.43359375 C39.58981308 31.1151754 36.28281163 28.79446041 32.9765625 26.47265625 C21.70778588 18.56436062 10.38049326 10.74668073 -1 3 C-0.67 2.01 -0.34 1.02 0 0 Z " fill="#B46D10" transform="translate(270,319)"/>
<path d="M0 0 C2.78838172 2.05880514 4.91093065 4.24173016 7 7 C7.43183594 7.54914063 7.86367188 8.09828125 8.30859375 8.6640625 C12.49787107 15.24514175 11.83980484 23.54580301 11 31 C8.68848878 39.21278872 3.37823917 44.73339053 -3.80078125 49.09375 C-10.76564918 52.31518785 -19.67393686 52.30477776 -26.9140625 50.12109375 C-32.69122735 47.47686271 -36.2286493 44.06154962 -40 39 C-50.85033136 43.54517818 -61.44288318 48.58828718 -72.01843262 53.73373413 C-81.17275454 58.18537853 -90.3804956 62.49218607 -99.66650391 66.66333008 C-105.61769264 69.34509354 -111.44164473 72.19628179 -117.2578125 75.16015625 C-122.06337123 77.56293562 -126.9760464 79.73357282 -131.875 81.9375 C-138.46019497 84.9015926 -144.9956078 87.92276157 -151.4375 91.1875 C-156.70096872 93.85323784 -161.98041713 96.4736652 -167.3125 99 C-167.94148193 99.30317139 -168.57046387 99.60634277 -169.21850586 99.91870117 C-172.01826968 101.23380613 -173.86371299 102 -177 102 C-177 101.34 -177 100.68 -177 100 C-146.74128711 85.23003151 -146.74128711 85.23003151 -132.65625 78.99780273 C-127.13474923 76.54386683 -121.73695082 73.90420329 -116.35571289 71.15844727 C-109.28717021 67.58158376 -102.06556597 64.34603446 -94.85351562 61.07128906 C-88.46056292 58.15786564 -82.15408568 55.12613204 -75.89916992 51.92895508 C-69.61393032 48.7441167 -63.18608232 45.88797181 -56.73535156 43.05615234 C-53.39768276 41.58144629 -50.22719519 40.13827939 -47.10546875 38.23828125 C-45 37 -45 37 -42 37 C-42.3196875 36.34386719 -42.639375 35.68773437 -42.96875 35.01171875 C-45.35986027 28.02858991 -45.3568469 18.86290933 -42.90234375 11.875 C-33.34140851 -4.85026272 -16.57757513 -9.14306372 0 0 Z " fill="#B7AB02" transform="translate(471,132)"/>
<path d="M0 0 C6.77023817 4.6741545 11.36349002 9.79320549 13 18 C13.42403588 24.46880276 12.36500813 29.89574723 8.5859375 35.21484375 C4.41947384 39.90468092 -0.74272003 43.89577412 -7 45 C-15.13442039 45.08773643 -21.74012412 43.71132044 -27.94140625 38.30859375 C-33.24070866 32.83227915 -35.75565778 27.03955822 -36.125 19.421875 C-35.75236158 11.82936725 -32.68169451 6.23477538 -27.125 1.125 C-19.0281261 -4.38087425 -8.53419655 -4.83713049 0 0 Z " fill="#A1D07F" transform="translate(270,70)"/>
<path d="M0 0 C26.81662592 0 26.81662592 0 33.65625 6.59765625 C39.09952698 12.75158328 38.54144475 19.32120716 38.17919922 27.10498047 C37.66359052 32.55750737 35.06176722 36.25939011 31.125 39.875 C21.15116917 46.65720497 13.08600968 44 0 44 C0 29.48 0 14.96 0 0 Z " fill="#090909" transform="translate(206,256)"/>
<path d="M0 0 C5.04238042 4.13096424 9.41024675 8.8155768 10.6640625 15.36328125 C11.17783888 20.91206615 10.47785458 25.5571733 7.6640625 30.36328125 C3.1492621 35.67294088 -2.33585384 39.45929694 -9.3359375 40.36328125 C-16.48930799 39.99025273 -23.18075748 37.83255159 -28.0625 32.46484375 C-32.94198641 26.24407671 -33.80211634 21.36763891 -33.75390625 13.48046875 C-32.97671928 7.6842519 -29.76131878 3.40999628 -25.359375 -0.3046875 C-17.97643501 -5.16488545 -7.32780295 -4.77522704 0 0 Z " fill="#91D7F7" transform="translate(139.3359375,368.63671875)"/>
<path d="M0 0 C4.62 0 9.24 0 14 0 C14 14.52 14 29.04 14 44 C11.03 44 8.06 44 5 44 C4.67 34.1 4.34 24.2 4 14 C1.78507473 21.62779612 1.78507473 21.62779612 -0.42724609 29.25634766 C-0.70648926 30.21589355 -0.98573242 31.17543945 -1.2734375 32.1640625 C-1.55622559 33.13811035 -1.83901367 34.1121582 -2.13037109 35.11572266 C-3.02956858 38.0980694 -4.00124532 41.04965572 -5 44 C-8.3 44 -11.6 44 -15 44 C-16.31942999 39.96056262 -17.6293099 35.91809009 -18.9375 31.875 C-19.31068359 30.73289062 -19.68386719 29.59078125 -20.06835938 28.4140625 C-20.42607422 27.30546875 -20.78378906 26.196875 -21.15234375 25.0546875 C-21.48226318 24.03874512 -21.81218262 23.02280273 -22.15209961 21.97607422 C-23 19 -23 19 -24 13 C-24.33 23.23 -24.66 33.46 -25 44 C-27.64 44 -30.28 44 -33 44 C-33 29.81 -33 15.62 -33 1 C-28.38 1 -23.76 1 -19 1 C-12.42553191 23.91489362 -12.42553191 23.91489362 -10 33 C-6.59429303 22.02160342 -3.29382895 11.01236813 0 0 Z " fill="#080808" transform="translate(144,256)"/>
<path d="M0 0 C10.23 0 20.46 0 31 0 C31 2.31 31 4.62 31 7 C23.74 7 16.48 7 9 7 C9 10.96 9 14.92 9 19 C15.93 19 22.86 19 30 19 C30 21.31 30 23.62 30 26 C23.07 26 16.14 26 9 26 C9 29.63 9 33.26 9 37 C16.59 37 24.18 37 32 37 C32 39.31 32 41.62 32 44 C21.44 44 10.88 44 0 44 C0 29.48 0 14.96 0 0 Z " fill="#0D0D0D" transform="translate(167,256)"/>
<path d="M0 0 C0.886875 -0.01417969 1.77375 -0.02835937 2.6875 -0.04296875 C5 0.1875 5 0.1875 7 2.1875 C7.33 1.5275 7.66 0.8675 8 0.1875 C9.98 0.1875 11.96 0.1875 14 0.1875 C14.08719631 4.74987931 14.14045922 9.31204386 14.1875 13.875 C14.21263672 15.16857422 14.23777344 16.46214844 14.26367188 17.79492188 C14.27333984 19.04208984 14.28300781 20.28925781 14.29296875 21.57421875 C14.3086792 22.72108154 14.32438965 23.86794434 14.34057617 25.04956055 C13.96042023 28.55217294 13.08062386 30.37501881 11 33.1875 C5.77224856 37.22311217 0.33975936 36.97668166 -6 36.1875 C-9.1875 34.5 -9.1875 34.5 -11 32.1875 C-11.8125 29.4375 -11.8125 29.4375 -12 27.1875 C-8.625 27 -8.625 27 -5 27.1875 C-4.34 28.1775 -3.68 29.1675 -3 30.1875 C-1.098006 30.66308206 -1.098006 30.66308206 1 30.5625 C2.051875 30.57410156 2.051875 30.57410156 3.125 30.5859375 C5.41058594 30.328414 5.41058594 30.328414 7 27.1875 C7 25.8675 7 24.5475 7 23.1875 C6.505 23.6825 6.01 24.1775 5.5 24.6875 C2.03576011 26.76604394 -1.11624438 27.00748679 -5 26.1875 C-8.0190434 24.43450706 -10.41511201 22.35727599 -12 19.1875 C-13.03994013 9.26349989 -13.03994013 9.26349989 -10.953125 5.09765625 C-7.53147878 0.98161712 -5.16482503 0.03753507 0 0 Z " fill="#0A0A0A" transform="translate(345,271.8125)"/>
<path d="M0 0 C4.01397506 2.61780982 7.14555704 5.14729427 8.4296875 9.94921875 C8.84623567 14.72286073 7.67681975 17.86704529 5 21.8125 C1.42045733 26.03150923 -1.78382026 27.1020707 -7.18359375 27.75390625 C-7.82425781 27.79386719 -8.46492188 27.83382812 -9.125 27.875 C-9.455 26.885 -9.785 25.895 -10.125 24.875 C-11.115 24.875 -12.105 24.875 -13.125 24.875 C-14.66015625 22.9765625 -14.66015625 22.9765625 -16.1875 20.5 C-17.73926501 18.01243776 -19.04772766 15.95227234 -21.125 13.875 C-21.5625 10.5625 -21.5625 10.5625 -21.125 6.875 C-15.67128502 -0.1827488 -8.5494066 -3.07778637 0 0 Z " fill="#F27456" transform="translate(57.125,81.125)"/>
<path d="M0 0 C1.77074917 -0.02705729 3.54161711 -0.04642195 5.3125 -0.0625 C6.29863281 -0.07410156 7.28476562 -0.08570313 8.30078125 -0.09765625 C11 0 11 0 14 1 C14 1.66 14 2.32 14 3 C14.88945312 3.15662109 14.88945312 3.15662109 15.796875 3.31640625 C19.8036057 4.55962943 21.96916853 7.43476253 24 11 C25.03201693 14.60341108 25.17192188 17.4210425 24 21 C21.3298708 23.90349415 18.28702831 25.8597415 15 28 C14.47535156 28.5465625 13.95070313 29.093125 13.41015625 29.65625 C12 31 12 31 8.75 31.5625 C3.72986602 30.8094799 1.3105212 28.73713475 -2 25 C-4.17860377 21.73209435 -5 19.91954654 -5 16 C-3.64475835 11.93427506 -2.11597832 9.97434294 1 7 C3.5625 6.625 3.5625 6.625 6 7 C7.32 7 8.64 7 10 7 C10.33 7.99 10.66 8.98 11 10 C11.66 10 12.32 10 13 10 C11.8081647 6.33287562 11.8081647 6.33287562 10 3 C6.37427992 1.76571231 3.61212924 1.74964757 0 3 C0 2.01 0 1.02 0 0 Z " fill="#E9D900" transform="translate(454,131)"/>
<path d="M0 0 C1.98 0 3.96 0 6 0 C6.33 0.66 6.66 1.32 7 2 C7.66 1.34 8.32 0.68 9 0 C13.19041802 -0.62289998 16.87700963 -0.65736022 20.5625 1.5 C21.036875 1.995 21.51125 2.49 22 3 C22.60521484 2.27103516 22.60521484 2.27103516 23.22265625 1.52734375 C25.43123982 -0.37058191 26.55943962 -0.43264661 29.4375 -0.4375 C30.19933594 -0.45683594 30.96117187 -0.47617187 31.74609375 -0.49609375 C35.14139187 0.2512249 36.0894083 1.04569907 38 4 C38.49125016 7.76138608 38.37488228 11.46510622 38.25 15.25 C38.23195313 16.28125 38.21390625 17.3125 38.1953125 18.375 C38.14822712 20.91761064 38.0824805 23.45833162 38 26 C35.69 26 33.38 26 31 26 C30.505 16.1 30.505 16.1 30 6 C27.525 5.505 27.525 5.505 25 5 C22.9859044 8.0211434 22.73163404 8.80660017 22.5859375 12.23046875 C22.54726563 13.03291016 22.50859375 13.83535156 22.46875 14.66210938 C22.42234375 15.91217773 22.42234375 15.91217773 22.375 17.1875 C22.33632813 18.03248047 22.29765625 18.87746094 22.2578125 19.74804688 C22.16363721 21.83167524 22.08073325 23.91580753 22 26 C19.69 26 17.38 26 15 26 C14.67 19.4 14.34 12.8 14 6 C12.35 5.67 10.7 5.34 9 5 C6.9859044 8.0211434 6.73163404 8.80660017 6.5859375 12.23046875 C6.54726563 13.03291016 6.50859375 13.83535156 6.46875 14.66210938 C6.4378125 15.49548828 6.406875 16.32886719 6.375 17.1875 C6.33632813 18.03248047 6.29765625 18.87746094 6.2578125 19.74804688 C6.16363721 21.83167524 6.08073325 23.91580753 6 26 C4.02 26 2.04 26 0 26 C0 17.42 0 8.84 0 0 Z " fill="#0C0C0C" transform="translate(263,272)"/>
<path d="M0 0 C11.65517241 0 11.65517241 0 16 3 C18.65604301 5.74344479 19.89730497 7.34663316 20.49609375 11.15625 C20.47675781 12.2596875 20.45742187 13.363125 20.4375 14.5 C20.43621094 15.6034375 20.43492187 16.706875 20.43359375 17.84375 C19.82002179 22.31011164 17.90837005 24.91581639 15.0625 28.3125 C12 30 12 30 0 30 C0 20.1 0 10.2 0 0 Z " fill="#FBFBFB" transform="translate(215,263)"/>
<path d="M0 0 C4.41727867 3.49701228 7.60550284 6.12636616 8.625 11.9375 C7.84706089 16.21616509 6.17084614 17.52123848 3 20.375 C3 21.365 3 22.355 3 23.375 C1.9375 25.125 1.9375 25.125 0 26.375 C-3.6875 26.0625 -3.6875 26.0625 -7 25.375 C-7 24.385 -7 23.395 -7 22.375 C-9.64 21.715 -12.28 21.055 -15 20.375 C-15.33 18.725 -15.66 17.075 -16 15.375 C-16.99 15.045 -17.98 14.715 -19 14.375 C-19.55864378 10.54429982 -19.70731405 8.47786433 -17.58203125 5.1640625 C-12.60784047 -0.71163408 -7.49553948 -4.06008388 0 0 Z " fill="#FBBF7D" transform="translate(394,382.625)"/>
<path d="M0 0 C3.53536291 2.02020738 5.76937948 4.08438925 7 8 C7 10.31 7 12.62 7 15 C1.06 15 -4.88 15 -11 15 C-9.54711014 19.5841963 -9.54711014 19.5841963 -8 21 C-5.58416247 21.33374277 -5.58416247 21.33374277 -3 21 C-2.525625 20.505 -2.05125 20.01 -1.5625 19.5 C0 18 0 18 3.1875 17.8125 C4.5796875 17.9053125 4.5796875 17.9053125 6 18 C4.73115998 21.91225672 3.71481455 24.0949669 0 26 C-4.75778683 27.2596807 -7.90422464 27.54788768 -12.375 25.3125 C-17.73300418 20.59235346 -17.73300418 20.59235346 -18.43359375 16.4140625 C-18.44196155 10.43945559 -18.17175423 6.64852614 -14 2 C-9.54422653 -0.97051564 -5.22557394 -0.62737491 0 0 Z " fill="#0B0B0B" transform="translate(382,272)"/>
<path d="M0 0 C0.92683594 -0.0309375 1.85367187 -0.061875 2.80859375 -0.09375 C6.87863092 0.78376156 8.19477079 2.07190286 10.5625 5.5 C11.15838833 9.12743761 11.0349132 12.64925758 10.875 16.3125 C10.85244141 17.29154297 10.82988281 18.27058594 10.80664062 19.27929688 C10.74789727 21.68777455 10.66582129 24.09309078 10.5625 26.5 C8.5825 26.5 6.6025 26.5 4.5625 26.5 C4.2325 25.84 3.9025 25.18 3.5625 24.5 C3.02625 24.995 2.49 25.49 1.9375 26 C-1.15602796 27.95380713 -2.83119166 28.01518691 -6.4375 27.5 C-9.3125 26 -9.3125 26 -11.4375 23.5 C-12.15389568 20.68063634 -12.1720779 18.31684598 -11.4375 15.5 C-8.84489824 12.7672576 -6.99814994 11.68688331 -3.4375 10.5 C-1.10450175 10.46045766 1.22958189 10.45598268 3.5625 10.5 C3.5625 8.85 3.5625 7.2 3.5625 5.5 C1.5825 5.5 -0.3975 5.5 -2.4375 5.5 C-3.0975 6.82 -3.7575 8.14 -4.4375 9.5 C-6.4175 9.5 -8.3975 9.5 -10.4375 9.5 C-9.94855418 3.99935958 -9.94855418 3.99935958 -7.73046875 1.83203125 C-4.97411265 0.23080905 -3.17488884 0.03522762 0 0 Z " fill="#0E0E0E" transform="translate(317.4375,271.5)"/>
<path d="M0 0 C5.04238042 4.13096424 9.41024675 8.8155768 10.6640625 15.36328125 C11.17783888 20.91206615 10.47785458 25.5571733 7.6640625 30.36328125 C3.1492621 35.67294088 -2.33585384 39.45929694 -9.3359375 40.36328125 C-16.48930799 39.99025273 -23.18075748 37.83255159 -28.0625 32.46484375 C-32.94198641 26.24407671 -33.80211634 21.36763891 -33.75390625 13.48046875 C-32.97671928 7.6842519 -29.76131878 3.40999628 -25.359375 -0.3046875 C-17.97643501 -5.16488545 -7.32780295 -4.77522704 0 0 Z M-20.09765625 2.296875 C-25.77855856 7.33836213 -25.77855856 7.33836213 -30.3359375 13.36328125 C-30.0059375 14.35328125 -29.6759375 15.34328125 -29.3359375 16.36328125 C-29.06764689 19.39113244 -28.89157285 22.41864882 -28.71484375 25.453125 C-28.34244958 28.31326579 -28.01413416 30.03069344 -26.3359375 32.36328125 C-24.27517643 33.45233136 -24.27517643 33.45233136 -21.8984375 34.05078125 C-21.11597656 34.28152344 -20.33351563 34.51226562 -19.52734375 34.75 C-18.80417969 34.95238281 -18.08101562 35.15476562 -17.3359375 35.36328125 C-16.3459375 35.69328125 -15.3559375 36.02328125 -14.3359375 36.36328125 C-12.00293925 36.40282359 -9.66885561 36.40729857 -7.3359375 36.36328125 C-7.3359375 35.70328125 -7.3359375 35.04328125 -7.3359375 34.36328125 C-5.8509375 34.85828125 -5.8509375 34.85828125 -4.3359375 35.36328125 C-3.9234375 34.90953125 -3.5109375 34.45578125 -3.0859375 33.98828125 C-1.3359375 32.36328125 -1.3359375 32.36328125 0.6640625 31.55078125 C3.58999628 29.81350807 4.26472423 27.40532097 5.6640625 24.36328125 C6.5303125 23.46609375 6.5303125 23.46609375 7.4140625 22.55078125 C9.17374913 19.47132964 8.88628655 17.20084048 8.37890625 13.74609375 C6.7837909 8.42904257 2.73660626 4.0340007 -1.3359375 0.36328125 C-7.70773301 -1.50163451 -14.57066964 -1.57279738 -20.09765625 2.296875 Z " fill="#66CDF4" transform="translate(139.3359375,368.63671875)"/>
<path d="M0 0 C4.80078015 1.34178291 8.13532913 3.31294633 12.11328125 6.29296875 C17.79521917 10.46793892 23.58346329 14.43573082 29.48046875 18.30078125 C30.32813812 18.85692108 31.1758075 19.41306091 32.04916382 19.98605347 C33.83282762 21.1548356 35.61703111 22.32279446 37.4017334 23.48999023 C53.7713845 34.19937593 70.05126926 45.03400428 86.25 56 C99.30093871 64.83222136 112.38360783 73.60959975 125.5625 82.25 C126.24711304 82.69923828 126.93172607 83.14847656 127.63708496 83.61132812 C134.1655308 88.07030561 134.1655308 88.07030561 141 92 C140.67 92.99 140.34 93.98 140 95 C129.56620845 88.44597555 119.28778084 81.65479037 109 74.875 C108.04103821 74.24328888 107.08207642 73.61157776 106.09405518 72.96072388 C90.0255188 62.37024057 74.03988665 51.6615042 58.10620117 40.86938477 C48.75674696 34.53974006 39.38305122 28.25043106 29.96484375 22.0234375 C28.982276 21.37280838 27.99970825 20.72217926 26.98736572 20.05183411 C22.24533689 16.91184803 17.49929837 13.77830552 12.74560547 10.65600586 C11.05545057 9.53792032 9.36549765 8.41952937 7.67578125 7.30078125 C6.89371811 6.79078583 6.11165497 6.28079041 5.30589294 5.75534058 C3.50157232 4.55557547 1.74463208 3.28501677 0 2 C0 1.34 0 0.68 0 0 Z " fill="#2A2A2A" transform="translate(71,127)"/>
<path d="M0 0 C3.30048002 1.26125487 3.95303393 1.92955089 6 5 C6 5.99 6 6.98 6 8 C2.625 8.1875 2.625 8.1875 -1 8 C-1.66 7.01 -2.32 6.02 -3 5 C-4.32 5 -5.64 5 -7 5 C-6.88072436 6.95285082 -6.88072436 6.95285082 -6 9 C-3.76014735 10.28749501 -3.76014735 10.28749501 -1.0625 11.125 C3.82781457 12.82781457 3.82781457 12.82781457 6 15 C6.27908135 17.93035419 6.48367046 20.15625076 6 23 C3.05422348 26.14893352 -0.06455143 26.91175013 -4.3125 27.3125 C-8.71823771 26.9391324 -10.69871919 25.90827119 -14 23 C-14.875 20.25 -14.875 20.25 -15 18 C-12.125 17.8125 -12.125 17.8125 -9 18 C-8.34 18.99 -7.68 19.98 -7 21 C-3.91634129 21.2502157 -3.91634129 21.2502157 -1 21 C-1 20.01 -1 19.02 -1 18 C-1.68707031 17.74605469 -2.37414062 17.49210937 -3.08203125 17.23046875 C-3.98308594 16.88628906 -4.88414062 16.54210937 -5.8125 16.1875 C-6.70582031 15.85105469 -7.59914063 15.51460938 -8.51953125 15.16796875 C-10.96968093 14.01427622 -12.3668422 13.142194 -14 11 C-14.48258091 7.20829285 -14.51879045 4.91967398 -12.625 1.5625 C-8.61271078 -0.82576739 -4.56070533 -0.62855875 0 0 Z " fill="#0D0D0D" transform="translate(407,272)"/>
<path d="M0 0 C0 0.66 0 1.32 0 2 C-1.05574219 2.48243164 -1.05574219 2.48243164 -2.1328125 2.97460938 C-18.23880159 10.28883574 -18.23880159 10.28883574 -34.125 18.0625 C-41.73755242 21.95083013 -49.51168153 25.46631275 -57.29296875 29.00195312 C-63.7186508 31.92975122 -70.03738733 34.98857061 -76.328125 38.1953125 C-81.11008054 40.58629027 -86.00026172 42.74409462 -90.875 44.9375 C-97.46017518 47.90163947 -103.99560565 50.92276048 -110.4375 54.1875 C-115.70096872 56.85323784 -120.98041713 59.4736652 -126.3125 62 C-126.94148193 62.30317139 -127.57046387 62.60634277 -128.21850586 62.91870117 C-131.01826968 64.23380613 -132.86371299 65 -136 65 C-136 64.34 -136 63.68 -136 63 C-105.74128711 48.23003151 -105.74128711 48.23003151 -91.65625 41.99780273 C-86.13474923 39.54386683 -80.73695082 36.90420329 -75.35571289 34.15844727 C-68.28717021 30.58158376 -61.06556597 27.34603446 -53.85351562 24.07128906 C-47.46056292 21.15786564 -41.15408568 18.12613204 -34.89916992 14.92895508 C-28.61393032 11.7441167 -22.18608232 8.88797181 -15.73535156 6.05615234 C-12.40813806 4.58606583 -9.26185603 3.16289251 -6.16796875 1.23828125 C-4 0 -4 0 0 0 Z " fill="#2D2D2D" transform="translate(430,169)"/>
<path d="M0 0 C2.86523926 2.69669577 3.18977529 5.27585087 3.4375 9.0625 C3 13 3 13 1.5 15.5 C-1.99217642 17.59530585 -5.09605726 17.8735555 -9 17 C-11.99380345 15.00413103 -13.63808488 13.61740829 -14.44140625 10.02734375 C-14.63126982 6.75066607 -14.20314678 4.36935779 -12.625 1.5 C-8.539368 -0.83464686 -4.58198411 -0.88506702 0 0 Z " fill="#FEF577" transform="translate(467,141)"/>
<path d="M0 0 C6.27610964 3.82307718 12.29037521 7.87219476 18.1875 12.25 C24.00036406 16.56499357 29.89762131 20.72417425 35.87768555 24.80371094 C40.78593105 28.15533636 45.65154549 31.56251826 50.5 35 C56.11716707 38.98014201 61.76011172 42.91872196 67.4375 46.8125 C68.0975 47.26616943 68.7575 47.71983887 69.4375 48.18725586 C72.35831027 50.19383777 75.28401232 52.19140709 78.22265625 54.171875 C79.13917969 54.79578125 80.05570312 55.4196875 81 56.0625 C81.78375 56.58972656 82.5675 57.11695313 83.375 57.66015625 C83.91125 58.10230469 84.4475 58.54445313 85 59 C85 59.66 85 60.32 85 61 C81.47548596 60.36766665 79.19057912 58.94974804 76.28125 56.89453125 C75.35932861 56.24790527 74.43740723 55.6012793 73.48754883 54.93505859 C72.50165771 54.23461426 71.5157666 53.53416992 70.5 52.8125 C69.47479248 52.09143066 68.44958496 51.37036133 67.39331055 50.62744141 C65.27794828 49.13925833 63.16426821 47.64868133 61.05224609 46.15576172 C57.46074333 43.61913003 53.85810709 41.09875485 50.25366211 38.58056641 C44.48883958 34.55285862 38.7317005 30.51418574 32.9765625 26.47265625 C21.70778588 18.56436062 10.38049326 10.74668073 -1 3 C-0.67 2.01 -0.34 1.02 0 0 Z " fill="#2D2D2D" transform="translate(270,319)"/>
<path d="M0 0 C4.01397506 2.61780982 7.14555704 5.14729427 8.4296875 9.94921875 C8.84623567 14.72286073 7.67681975 17.86704529 5 21.8125 C1.42045733 26.03150923 -1.78382026 27.1020707 -7.18359375 27.75390625 C-7.82425781 27.79386719 -8.46492188 27.83382812 -9.125 27.875 C-9.455 26.885 -9.785 25.895 -10.125 24.875 C-11.115 24.875 -12.105 24.875 -13.125 24.875 C-14.66015625 22.9765625 -14.66015625 22.9765625 -16.1875 20.5 C-17.73926501 18.01243776 -19.04772766 15.95227234 -21.125 13.875 C-21.5625 10.5625 -21.5625 10.5625 -21.125 6.875 C-15.67128502 -0.1827488 -8.5494066 -3.07778637 0 0 Z M-15.05078125 6.03125 C-16.61692018 8.71931391 -16.89263977 10.83117952 -16.65625 13.91015625 C-15.68909969 17.48719013 -13.79312425 19.33097455 -11.125 21.875 C-7.41485899 23.11171367 -3.98061242 23.43868603 -0.125 22.875 C2.6850346 21.08136089 4.38440468 19.85619065 5.875 16.875 C6.58478554 10.24487955 6.58478554 10.24487955 4.125 4.3125 C1.8034351 2.82927798 0.59420292 2.17713366 -2.125 1.875 C-3.40375 1.730625 -4.6825 1.58625 -6 1.4375 C-10.18953615 1.50811016 -12.34534611 2.88849795 -15.05078125 6.03125 Z " fill="#EF4D39" transform="translate(57.125,81.125)"/>
<path d="M0 0 C4.41727867 3.49701228 7.60550284 6.12636616 8.625 11.9375 C7.84706089 16.21616509 6.17084614 17.52123848 3 20.375 C3 21.365 3 22.355 3 23.375 C1.9375 25.125 1.9375 25.125 0 26.375 C-3.6875 26.0625 -3.6875 26.0625 -7 25.375 C-7 24.385 -7 23.395 -7 22.375 C-9.64 21.715 -12.28 21.055 -15 20.375 C-15.33 18.725 -15.66 17.075 -16 15.375 C-16.99 15.045 -17.98 14.715 -19 14.375 C-19.55864378 10.54429982 -19.70731405 8.47786433 -17.58203125 5.1640625 C-12.60784047 -0.71163408 -7.49553948 -4.06008388 0 0 Z M-14 6.375 C-14.84350003 10.43690306 -14.36594362 13.5150325 -12.75 17.3125 C-10.72156322 19.70315764 -10.08068572 20.11827619 -7 20.375 C-4.66699067 20.41388349 -2.33290199 20.4198635 0 20.375 C0 19.715 0 19.055 0 18.375 C1.32 18.375 2.64 18.375 4 18.375 C5.45032776 14.02401672 6.04492936 9.79617779 4.19921875 5.51953125 C2.49593516 3.0553306 0.75752504 1.56540864 -2.16015625 0.83203125 C-7.68964771 0.49047669 -10.87165695 1.53111399 -14 6.375 Z " fill="#F79D35" transform="translate(394,382.625)"/>
<path d="M0 0 C2.94790921 4.90935853 2.14444644 9.57140865 1 15 C-1.95451261 22.44995637 -7.85322148 26.88053542 -14.8125 30.4375 C-22.69899787 31.82923492 -30.3872507 30.59578873 -37 26 C-39.25590423 24.11122365 -41.05482198 22.23695472 -43 20 C-43 19.34 -43 18.68 -43 18 C-41.0625 18.8125 -41.0625 18.8125 -39 20 C-38.67 20.99 -38.34 21.98 -38 23 C-34.70172534 24.2046876 -34.70172534 24.2046876 -31 25 C-30.21625 25.185625 -29.4325 25.37125 -28.625 25.5625 C-27.325625 25.7790625 -27.325625 25.7790625 -26 26 C-25.29617187 26.15082031 -24.59234375 26.30164063 -23.8671875 26.45703125 C-21.49567791 26.87576314 -19.40571495 27.14925969 -17 27 C-14.16666667 24.83333333 -14.16666667 24.83333333 -12 22 C-11.175 21.5875 -10.35 21.175 -9.5 20.75 C-5.62646761 18.03852732 -3.72126261 14.3537819 -2 10 C-1.74855688 6.24926796 -1.74855688 6.24926796 -2 3 C-1.34 2.01 -0.68 1.02 0 0 Z " fill="#83C556" transform="translate(281,84)"/>
<path d="M0 0 C2.9375 1 2.9375 1 4.8125 2.625 C6.36977624 5.91258317 6.25866044 8.40300304 5.9375 12 C4.92013229 14.76142665 4.57579259 15.68085371 1.9375 17 C-3.43243899 17.45701608 -3.43243899 17.45701608 -5.7265625 15.79296875 C-8.29480809 12.34611282 -7.65688649 8.08724194 -7.0625 4 C-4.95122877 0.5082822 -4.07609263 0 0 0 Z " fill="#F5F5F5" transform="translate(347.0625,276)"/>
<path d="M0 0 C0 0.66 0 1.32 0 2 C-1.81640625 3.3828125 -1.81640625 3.3828125 -4.5625 5.125 C-10.71824345 9.12298578 -16.73955795 13.28701173 -22.75 17.5 C-32.17387113 24.08921938 -41.69158514 30.51605395 -51.28222656 36.859375 C-52.23452148 37.48972656 -53.18681641 38.12007813 -54.16796875 38.76953125 C-55.00610107 39.32229736 -55.8442334 39.87506348 -56.70776367 40.44458008 C-59.02531766 41.96192531 -59.02531766 41.96192531 -61.11450195 43.7644043 C-61.73671631 44.17215088 -62.35893066 44.57989746 -63 45 C-63.99 44.67 -64.98 44.34 -66 44 C-59.80863099 39.05796416 -53.44790488 34.48098268 -46.875 30.0625 C-37.81625365 23.93249208 -28.81659724 17.72364474 -19.85302734 11.45532227 C-17.23971054 9.63051027 -14.62063264 7.81428413 -12 6 C-10.732771 5.11078857 -10.732771 5.11078857 -9.43994141 4.20361328 C-8.64120605 3.65302246 -7.8424707 3.10243164 -7.01953125 2.53515625 C-5.96342651 1.80051147 -5.96342651 1.80051147 -4.88598633 1.05102539 C-3 0 -3 0 0 0 Z " fill="#353535" transform="translate(230,318)"/>
<path d="M0 0 C6.875 1.875 6.875 1.875 8 3 C8.45228549 10.9903769 8.45228549 10.9903769 6 14 C2.875 15.25 2.875 15.25 0 16 C0 15.34 0 14.68 0 14 C-2.31 13.67 -4.62 13.34 -7 13 C-7.36474164 5.58358663 -7.36474164 5.58358663 -5.75 3 C-4 2 -4 2 0 2 C0 1.34 0 0.68 0 0 Z " fill="#F4896B" transform="translate(51,86)"/>
<path d="M0 0 C-1.32 0 -2.64 0 -4 0 C-4 0.66 -4 1.32 -4 2 C-4.70125 1.91878906 -5.4025 1.83757812 -6.125 1.75390625 C-11.59406075 1.38979759 -15.13058255 1.4253641 -19.375 5.125 C-20.61544317 6.38586199 -21.82589686 7.67714171 -23 9 C-23.52851563 9.55945313 -24.05703125 10.11890625 -24.6015625 10.6953125 C-27.46543788 13.85637166 -27.46543788 13.85637166 -28 18 C-27.34 17.67 -26.68 17.34 -26 17 C-26.66 22.28 -27.32 27.56 -28 33 C-31.3997408 29.6002592 -31.930884 25.18406564 -32.078125 20.53125 C-31.65108546 12.84453827 -28.77482729 7.32041759 -23.125 2.125 C-16.39135833 -2.45387634 -7.30420336 -4.15498701 0 0 Z " fill="#81C454" transform="translate(266,69)"/>
<path d="M0 0 C1.98 0 3.96 0 6 0 C6.33 0.66 6.66 1.32 7 2 C7.99 2 8.98 2 10 2 C9.51917969 2.79664063 9.03835938 3.59328125 8.54296875 4.4140625 C6.63427751 8.84995759 6.44573749 12.6012911 6.3125 17.375 C6.27833984 18.20644531 6.24417969 19.03789062 6.20898438 19.89453125 C6.12712854 21.92923351 6.06187299 23.96459208 6 26 C4.02 26 2.04 26 0 26 C0 17.42 0 8.84 0 0 Z " fill="#020202" transform="translate(263,272)"/>
<path d="M0 0 C1.32 0.66 2.64 1.32 4 2 C4 2.66 4 3.32 4 4 C2.93458984 4.18175781 2.93458984 4.18175781 1.84765625 4.3671875 C0.92855469 4.53476563 0.00945312 4.70234375 -0.9375 4.875 C-1.85402344 5.03742188 -2.77054687 5.19984375 -3.71484375 5.3671875 C-4.46894531 5.57601562 -5.22304688 5.78484375 -6 6 C-7.60420518 9.20841035 -7.47462745 12.5193987 -7 16 C-5.66666667 18.66666667 -5.66666667 18.66666667 -3 20 C0.44228252 20.60257259 3.74406823 20.87123195 6.734375 18.796875 C8.44526292 16.36783659 8.30203342 14.75219103 8.1875 11.8125 C8.16042969 10.91144531 8.13335937 10.01039063 8.10546875 9.08203125 C8.07066406 8.39496094 8.03585937 7.70789063 8 7 C9.48828125 8.3125 9.48828125 8.3125 11 10 C11.1875 13 11.1875 13 11 16 C11 16.99 11 17.98 11 19 C8.50002158 22.76370377 5.98000144 24.7861815 1.5625 25.75 C-4.43911205 24.48650273 -7.66698326 20.99952511 -11 16 C-12.21346851 12.35959446 -12.21346851 10.64040554 -11 7 C-9.52457065 4.51446901 -8.15028786 3.0525475 -6 1 C-3.25 0.6875 -3.25 0.6875 -1 1 C-0.67 0.67 -0.34 0.34 0 0 Z " fill="#F4E505" transform="translate(461,137)"/>
<path d="M0 0 C1.98 0 3.96 0 6 0 C6 8.58 6 17.16 6 26 C4.02 26 2.04 26 0 26 C0 17.42 0 8.84 0 0 Z " fill="#020202" transform="translate(250,272)"/>
<path d="M0 0 C7.83378356 0.11244665 15.47414301 3.34195569 21.1875 8.6875 C26.23231874 14.44947434 28.56699317 18.88208869 28.125 26.6875 C27.64420966 31.83129802 27.64420966 31.83129802 25.62890625 34.23046875 C25.15324219 34.60816406 24.67757812 34.98585937 24.1875 35.375 C23.43263717 32.52329598 23.15544787 30.55128671 23.6875 27.625 C24.33956497 23.38657773 24.34442464 19.52766991 23.1875 15.375 C20.77113062 12.45613411 20.77113062 12.45613411 18.1875 10.375 C18.1875 9.715 18.1875 9.055 18.1875 8.375 C16.8675 8.045 15.5475 7.715 14.1875 7.375 C14.1875 6.715 14.1875 6.055 14.1875 5.375 C5.0739652 4.34747374 5.0739652 4.34747374 -3.3671875 6.93359375 C-5.04791842 8.66662957 -6.49006309 10.35789778 -7.8125 12.375 C-7.8125 8.75046731 -6.88780387 7.29579805 -4.8125 4.375 C-3.8225 4.045 -2.8325 3.715 -1.8125 3.375 C-2.8025 2.715 -3.7925 2.055 -4.8125 1.375 C-3.8125 0.375 -3.8125 0.375 0 0 Z " fill="#C3B813" transform="translate(453.8125,126.625)"/>
<path d="M0 0 C2.91768129 0.73337739 4.65609141 2.22329935 6.359375 4.6875 C8.20508561 8.96414654 7.61048401 13.19198547 6.16015625 17.54296875 C4.84015625 17.54296875 3.52015625 17.54296875 2.16015625 17.54296875 C2.16015625 18.20296875 2.16015625 18.86296875 2.16015625 19.54296875 C-6.33416193 19.70632102 -6.33416193 19.70632102 -8.83984375 18.54296875 C-11.76533046 15.09507369 -12.45078299 11.88600544 -12.2421875 7.48046875 C-11.83984375 5.54296875 -11.83984375 5.54296875 -9.90234375 2.54296875 C-6.34494659 0.2197706 -4.18736269 -0.25865179 0 0 Z M-8.6015625 4.78125 C-10.75010481 7.83800894 -10.36242588 10.95954842 -9.83984375 14.54296875 C-9.00651042 16.70963542 -9.00651042 16.70963542 -6.83984375 17.54296875 C-3.27539764 18.06278381 -0.10189929 18.17399652 3.16015625 16.54296875 C4.84493474 13.17341176 4.45666329 10.27895745 4.16015625 6.54296875 C1.8301357 4.2129482 0.9132513 4.12339918 -2.27734375 3.73046875 C-3.45103516 3.56611328 -3.45103516 3.56611328 -4.6484375 3.3984375 C-6.89850472 3.35610572 -6.89850472 3.35610572 -8.6015625 4.78125 Z " fill="#F9AE5A" transform="translate(391.83984375,383.45703125)"/>
<path d="M0 0 C0.66 0 1.32 0 2 0 C4.16449173 8.41235082 5.63931405 16.79398491 6.86767578 25.38354492 C7.86100267 32.27074221 9.09803119 39.08492678 10.44921875 45.91015625 C11 49 11 49 11 52 C10.34 52 9.68 52 9 52 C6.3759517 39.80465452 3.8465429 27.59976023 1.6875 15.3125 C1.51637695 14.35206787 1.34525391 13.39163574 1.16894531 12.40209961 C1.01393555 11.50241455 0.85892578 10.60272949 0.69921875 9.67578125 C0.49558716 8.4988269 0.49558716 8.4988269 0.2878418 7.2980957 C-0.0196232 4.84333067 -0.04891954 2.47139317 0 0 Z " fill="#282828" transform="translate(245,178)"/>
<path d="M0 0 C2.86523926 2.69669577 3.18977529 5.27585087 3.4375 9.0625 C3 13 3 13 1.5 15.5 C-1.99217642 17.59530585 -5.09605726 17.8735555 -9 17 C-11.99380345 15.00413103 -13.63808488 13.61740829 -14.44140625 10.02734375 C-14.63126982 6.75066607 -14.20314678 4.36935779 -12.625 1.5 C-8.539368 -0.83464686 -4.58198411 -0.88506702 0 0 Z M-12 4 C-12.58378066 8.42005359 -12.50969342 10.31555454 -9.8125 13.9375 C-7.21187209 16.15460795 -7.21187209 16.15460795 -4.375 16.5 C-2.0165703 16.12433395 -2.0165703 16.12433395 -0.1875 15 C1.71531021 11.79526702 1.79778027 8.6125899 1 5 C-1.7239713 2.4362623 -3.48513812 2.05047665 -7.1875 1.6875 C-10.13502523 1.71856187 -10.13502523 1.71856187 -12 4 Z " fill="#FEF352" transform="translate(467,141)"/>
<path d="M0 0 C0.33 0.99 0.66 1.98 1 3 C0.29391602 3.46897705 -0.41216797 3.9379541 -1.13964844 4.42114258 C-3.77178542 6.17020237 -6.4032159 7.92031863 -9.03417969 9.67114258 C-10.17061845 10.42709751 -11.30733367 11.18263702 -12.44433594 11.93774414 C-14.08341834 13.02639913 -15.72140845 14.1166981 -17.359375 15.20703125 C-18.34389648 15.8616333 -19.32841797 16.51623535 -20.34277344 17.19067383 C-22.97580309 18.92160176 -22.97580309 18.92160176 -25.16503906 20.79956055 C-25.77057617 21.19570557 -26.37611328 21.59185059 -27 22 C-27.99 21.67 -28.98 21.34 -30 21 C-23.54408398 15.8111236 -16.85562467 11.11199744 -9.9375 6.5625 C-8.49600586 5.60827148 -8.49600586 5.60827148 -7.02539062 4.63476562 C-4.68570049 3.08661245 -2.34390353 1.54176338 0 0 Z " fill="#292929" transform="translate(194,341)"/>
<path d="M0 0 C0.02578125 0.80824219 0.0515625 1.61648437 0.078125 2.44921875 C0.41398024 10.54351101 0.41398024 10.54351101 5 17 C5 17.66 5 18.32 5 19 C6.74991334 19.02715383 8.49994945 19.04646551 10.25 19.0625 C11.22453125 19.07410156 12.1990625 19.08570312 13.203125 19.09765625 C15.65758678 19.01195577 17.66168914 18.70706066 20 18 C18 21 18 21 15.6171875 21.73046875 C14.71226563 21.88128906 13.80734375 22.03210938 12.875 22.1875 C11.96492188 22.34605469 11.05484375 22.50460938 10.1171875 22.66796875 C9.41851562 22.77753906 8.71984375 22.88710937 8 23 C7.67 22.01 7.34 21.02 7 20 C6.01 20 5.02 20 4 20 C2.46484375 18.1015625 2.46484375 18.1015625 0.9375 15.625 C-0.61426501 13.13743776 -1.92272766 11.07727234 -4 9 C-4.3125 5.5 -4.3125 5.5 -4 2 C-1 0 -1 0 0 0 Z " fill="#EE4032" transform="translate(40,86)"/>
<path d="M0 0 C0.36738281 0.47050781 0.73476563 0.94101562 1.11328125 1.42578125 C3.69404391 3.5790884 5.88422526 3.72575192 9.1875 4.1875 C10.81751953 4.42533203 10.81751953 4.42533203 12.48046875 4.66796875 C13.72763672 4.83232422 13.72763672 4.83232422 15 5 C15 4.34 15 3.68 15 3 C16.32 3.33 17.64 3.66 19 4 C18.6130131 6.24452405 18.08035336 7.87054181 16.875 9.8125 C13.88367023 11.70700885 11.32900597 10.69092577 8 10 C8 9.01 8 8.02 8 7 C5.36 6.34 2.72 5.68 0 5 C0 3.35 0 1.7 0 0 Z " fill="#F49A33" transform="translate(379,398)"/>
<path d="M0 0 C5.14075497 -0.17726741 9.21705726 -0.16371219 14 2 C16.81454595 6.22181892 16.80684081 10.04030209 16 15 C13.5625 18.0625 13.5625 18.0625 11 20 C10.67 20.33 10.34 20.66 10 21 C2.54135338 21.36090226 2.54135338 21.36090226 -1 19 C0.01320312 19.06960937 0.01320312 19.06960937 1.046875 19.140625 C6.57982554 19.40083869 6.57982554 19.40083869 11.6875 17.5625 C13.68090153 13.67062081 12.94277217 10.17398279 12 6 C10.66697708 3.33395417 9.81009519 3.00875212 7 2 C4.30840157 1.83531329 1.70156394 1.90994787 -1 2 C-0.67 1.34 -0.34 0.68 0 0 Z " fill="#F16146" transform="translate(47,83)"/>
<path d="M0 0 C0.66 0.33 1.32 0.66 2 1 C2 1.66 2 2.32 2 3 C-1.93634143 4.81502389 -5.87426644 6.62658576 -9.8125 8.4375 C-10.93205078 8.95376953 -12.05160156 9.47003906 -13.20507812 10.00195312 C-14.27822266 10.49501953 -15.35136719 10.98808594 -16.45703125 11.49609375 C-17.44678955 11.95169678 -18.43654785 12.4072998 -19.45629883 12.87670898 C-22 14 -22 14 -25 15 C-25.66 14.34 -26.32 13.68 -27 13 C-26.21761963 12.64172119 -25.43523926 12.28344238 -24.62915039 11.91430664 C-21.73412676 10.58730414 -18.84002253 9.2583228 -15.9465332 7.92797852 C-14.69266833 7.35198383 -13.43843732 6.77678553 -12.18383789 6.20239258 C-10.38332189 5.37789711 -8.58421661 4.55032314 -6.78515625 3.72265625 C-5.70113525 3.22515869 -4.61711426 2.72766113 -3.50024414 2.21508789 C-1.11561712 1.2245843 -1.11561712 1.2245843 0 0 Z " fill="#383838" transform="translate(386,188)"/>
<path d="M0 0 C1 3 1 3 -0.1875 5.875 C-3.03913808 10.79161739 -5.35887867 14.37310132 -10.8515625 16.5078125 C-15.1754985 17.49838693 -19.59543209 17.21505124 -24 17 C-23.34 16.34 -22.68 15.68 -22 15 C-18.375 15.375 -18.375 15.375 -15 16 C-15 15.34 -15 14.68 -15 14 C-14.443125 13.896875 -13.88625 13.79375 -13.3125 13.6875 C-9.01581658 12.41010763 -6.57966907 11.04786331 -4.375 7.0625 C-3.92125 6.051875 -3.4675 5.04125 -3 4 C-2.03465478 2.64136599 -1.04722851 1.29656863 0 0 Z " fill="#75D0F5" transform="translate(147,389)"/>
<path d="M0 0 C0.33 0 0.66 0 1 0 C0.25 6.75 0.25 6.75 -2 9 C-3.875 9.265625 -3.875 9.265625 -6 9.25 C-6.70125 9.25515625 -7.4025 9.2603125 -8.125 9.265625 C-10 9 -10 9 -12 7 C-12 6.01 -12 5.02 -12 4 C-10.95199219 3.81824219 -10.95199219 3.81824219 -9.8828125 3.6328125 C-8.51769531 3.38144531 -8.51769531 3.38144531 -7.125 3.125 C-5.76761719 2.88136719 -5.76761719 2.88136719 -4.3828125 2.6328125 C-1.83494012 2.16955297 -1.83494012 2.16955297 0 0 Z " fill="#EDEDED" transform="translate(352,294)"/>
<path d="M0 0 C2.5625 0.3125 2.5625 0.3125 4.375 1.5625 C5.5625 3.3125 5.5625 3.3125 5.5625 7.3125 C1.9325 7.3125 -1.6975 7.3125 -5.4375 7.3125 C-4.07960526 0.52302632 -4.07960526 0.52302632 0 0 Z " fill="#D8D8D8" transform="translate(376.4375,275.6875)"/>
<path d="M0 0 C0.99 0.66 1.98 1.32 3 2 C3.25 5.0625 3.25 5.0625 3 8 C2 9 2 9 -1 9.125 C-4 9 -4 9 -5 8 C-5.04080783 6.00041636 -5.04254356 3.99954746 -5 2 C-2.6875 0.875 -2.6875 0.875 0 0 Z " fill="#FFF68F" transform="translate(462,145)"/>
<path d="M0 0 C0.99 0.33 1.98 0.66 3 1 C2.505 1.350625 2.01 1.70125 1.5 2.0625 C-0.73063966 4.94374289 -0.19980621 7.47009026 0 11 C2.29294488 11.85974801 2.29294488 11.85974801 5 12 C7.62200075 9.9023994 9.13225232 7.80162152 11 5 C11.35555556 10.33333333 11.35555556 10.33333333 10 12.875 C6.77469932 14.68923163 3.60489139 14.52571333 0 14 C-2 13 -2 13 -3 11 C-3.39886811 8.26490442 -3.44384118 5.73133034 -3 3 C-1.5 1 -1.5 1 0 0 Z " fill="#FBB86F" transform="translate(385,387)"/>
<path d="M0 0 C0.93423645 3.01031744 1.04449911 3.86650268 0 7 C-1.77734375 8.71875 -1.77734375 8.71875 -3.9375 10.5 C-6.50975192 12.62876021 -8.12260763 14.18391145 -10 17 C-12.625 17.1875 -12.625 17.1875 -15 17 C-10.58252427 11.32038835 -10.58252427 11.32038835 -7.5 9.625 C-3.81227226 7.22797697 -2.11255702 3.78462343 0 0 Z " fill="#8DC963" transform="translate(279,95)"/>
<path d="M0 0 C1.134375 0.020625 2.26875 0.04125 3.4375 0.0625 C3.5625 2.4375 3.5625 2.4375 3.4375 5.0625 C1.4375 7.0625 1.4375 7.0625 -1.125 7.25 C-3.5625 7.0625 -3.5625 7.0625 -4.5625 6.0625 C-4.6875 3.5625 -4.6875 3.5625 -4.5625 1.0625 C-3.5625 0.0625 -3.5625 0.0625 0 0 Z " fill="#F4F4F4" transform="translate(317.5625,286.9375)"/>
<path d="M0 0 C0.66 0 1.32 0 2 0 C4.2173731 7.9925652 5.53994167 14.78079326 4 23 C3.67 23 3.34 23 3 23 C2.49494737 20.10496617 1.9957978 17.20912047 1.5 14.3125 C1.35691406 13.49587891 1.21382812 12.67925781 1.06640625 11.83789062 C0.38834038 7.85021752 -0.19858392 4.06269596 0 0 Z " fill="#3A3B39" transform="translate(245,178)"/>
<path d="M0 0 C-0.33 0.99 -0.66 1.98 -1 3 C-1.66 3 -2.32 3 -3 3 C-3.99 7.29 -4.98 11.58 -6 16 C-6.99 15.67 -7.98 15.34 -9 15 C-9.56673258 11.11383371 -9.72075397 9.08775206 -7.51171875 5.75390625 C-2.55782086 0 -2.55782086 0 0 0 Z " fill="#F2921F" transform="translate(384,382)"/>
<path d="M0 0 C2.40566625 1.72907261 3.82155168 3.09574745 4.40625 6.05859375 C4.62539437 11.47328599 3.73833137 14.8575247 0 19 C-3.39711132 20.91631921 -6.13535319 21.22083696 -10 21 C-9.443125 20.7525 -8.88625 20.505 -8.3125 20.25 C-5.84535202 19.00800235 -5.84535202 19.00800235 -3.375 16.875 C-1 15 -1 15 1 15 C1.02703381 13.06257659 1.04641125 11.12504521 1.0625 9.1875 C1.07410156 8.10855469 1.08570313 7.02960938 1.09765625 5.91796875 C1.13624766 2.93487831 1.13624766 2.93487831 0 0 Z " fill="#ED382E" transform="translate(61,85)"/>
<path d="M0 0 C0.33 0.66 0.66 1.32 1 2 C1.99 2.33 2.98 2.66 4 3 C3.91284983 4.93833996 3.80467036 6.8757429 3.6875 8.8125 C3.62949219 9.89144531 3.57148438 10.97039062 3.51171875 12.08203125 C2.96931493 15.17497517 2.44710376 16.13022903 0 18 C-1.06824882 13.96439334 -0.73361326 11.0756292 0 7 C0.03762951 4.66697011 0.04665734 2.33286681 0 0 Z " fill="#CCBE05" transform="translate(478,144)"/>
<path d="M0 0 C0.66 0 1.32 0 2 0 C1.04316183 2.04781253 0.10656991 3.86371969 -1.2890625 5.6484375 C-6.14927055 11.92975902 -5.48308889 18.35646026 -5 26 C-7.96771516 20.96206418 -7.84352998 15.67078975 -7 10 C-5.21291751 6.24445948 -2.94677469 2.94677469 0 0 Z " fill="#59CAF4" transform="translate(113,369)"/>
<path d="M0 0 C4.10228779 1.43992551 7.30398117 3.44493408 10.8125 6 C12.27623047 7.051875 12.27623047 7.051875 13.76953125 8.125 C14.87361328 9.053125 14.87361328 9.053125 16 10 C16 10.66 16 11.32 16 12 C11.73970809 11.42000976 8.64838465 8.87612107 5.25 6.4375 C4.64800781 6.01275391 4.04601562 5.58800781 3.42578125 5.15039062 C1.94670286 4.10564478 0.47282741 3.05353984 -1 2 C-0.67 1.34 -0.34 0.68 0 0 Z " fill="#363533" transform="translate(339,368)"/>
<path d="M0 0 C3.60372883 4.72246882 5.286829 7.7804014 4.625 13.8125 C4.4289245 15.21010791 4.2246285 16.60669619 4 18 C0.67402719 14.46894039 0.53229836 11.49764465 0.3125 6.75 C0.24675781 5.48671875 0.18101562 4.2234375 0.11328125 2.921875 C0.07589844 1.95765625 0.03851563 0.9934375 0 0 Z " fill="#C07C25" transform="translate(410,383)"/>
<path d="M0 0 C3.125 0.375 3.125 0.375 6 1 C6 2.65 6 4.3 6 6 C3.36 6.33 0.72 6.66 -2 7 C-2.125 4.625 -2.125 4.625 -2 2 C-1.34 1.34 -0.68 0.68 0 0 Z " fill="#EDEDED" transform="translate(315,276)"/>
<path d="M0 0 C0.33 0 0.66 0 1 0 C1 11.22 1 22.44 1 34 C0.67 34 0.34 34 0 34 C-0.02505615 33.31897217 -0.0501123 32.63794434 -0.07592773 31.9362793 C-0.19190952 28.85316245 -0.31462616 25.77034954 -0.4375 22.6875 C-0.47681641 21.61564453 -0.51613281 20.54378906 -0.55664062 19.43945312 C-0.59853516 18.41142578 -0.64042969 17.38339844 -0.68359375 16.32421875 C-0.73858032 14.9024231 -0.73858032 14.9024231 -0.79467773 13.4519043 C-0.91430187 10.863829 -0.91430187 10.863829 -2 8 C-1.54451823 5.26187393 -0.74685247 2.6798824 0 0 Z " fill="#DFDFDF" transform="translate(148,266)"/>
<path d="M0 0 C1.2065625 0.0309375 1.2065625 0.0309375 2.4375 0.0625 C3.0625 2.4375 3.0625 2.4375 3.4375 5.0625 C2.7775 5.7225 2.1175 6.3825 1.4375 7.0625 C-1.1875 6.6875 -1.1875 6.6875 -3.5625 6.0625 C-3.605221 4.39638095 -3.60313832 2.72867115 -3.5625 1.0625 C-2.5625 0.0625 -2.5625 0.0625 0 0 Z " fill="#1B1B1B" transform="translate(253.5625,262.9375)"/>
<path d="M0 0 C3.10742423 1.46818668 5.90471739 3.20025 8.75 5.125 C9.94882812 5.93324219 9.94882812 5.93324219 11.171875 6.7578125 C11.77515625 7.16773438 12.3784375 7.57765625 13 8 C12.67 8.99 12.34 9.98 12 11 C7.71 8.03 3.42 5.06 -1 2 C-0.67 1.34 -0.34 0.68 0 0 Z " fill="#333333" transform="translate(309,347)"/>
<path d="M0 0 C5.73199571 1.46974249 10.33583399 4.44486902 15 8 C15 8.33 15 8.66 15 9 C10.47597193 9.4401757 8.31983956 8.26180946 4.6875 5.625 C3.36298828 4.68527344 3.36298828 4.68527344 2.01171875 3.7265625 C1.34785156 3.15679687 0.68398437 2.58703125 0 2 C0 1.34 0 0.68 0 0 Z " fill="#353333" transform="translate(71,127)"/>
<path d="M0 0 C5.09593044 2.47075415 8.74336862 6.43896519 12 11 C12.703125 13.25390625 12.703125 13.25390625 13 15 C12.34 15 11.68 15 11 15 C10.5875 14.071875 10.175 13.14375 9.75 12.1875 C8.04014879 9.07312814 6.8388153 7.95780365 4 6 C4 5.34 4 4.68 4 4 C2.68 3.67 1.36 3.34 0 3 C0 2.01 0 1.02 0 0 Z " fill="#CBBF15" transform="translate(468,131)"/>
<path d="M0 0 C1.22976562 0.12568359 1.22976562 0.12568359 2.484375 0.25390625 C3.56203125 0.35574219 4.6396875 0.45757812 5.75 0.5625 C6.81734375 0.66691406 7.8846875 0.77132812 8.984375 0.87890625 C11.64141204 0.98560074 13.49960572 0.81930395 16 0 C14 3 14 3 11.6171875 3.73046875 C10.71226563 3.88128906 9.80734375 4.03210938 8.875 4.1875 C7.50988281 4.42533203 7.50988281 4.42533203 6.1171875 4.66796875 C5.06917969 4.83232422 5.06917969 4.83232422 4 5 C3.67 4.01 3.34 3.02 3 2 C2.01 2 1.02 2 0 2 C0 1.34 0 0.68 0 0 Z " fill="#E82125" transform="translate(44,104)"/>
<path d="M0 0 C0.33 0.99 0.66 1.98 1 3 C-0.5949008 4.19991599 -2.20126147 5.38461318 -3.8125 6.5625 C-4.70582031 7.22378906 -5.59914062 7.88507813 -6.51953125 8.56640625 C-7.33808594 9.03949219 -8.15664062 9.51257813 -9 10 C-9.99 9.67 -10.98 9.34 -12 9 C-10.56351736 7.87370125 -9.12577415 6.7490101 -7.6875 5.625 C-6.88699219 4.99851562 -6.08648437 4.37203125 -5.26171875 3.7265625 C-3.55336788 2.42243282 -1.78827274 1.19218183 0 0 Z " fill="#282929" transform="translate(176,353)"/>
<path d="M0 0 C0.8353125 0.556875 0.8353125 0.556875 1.6875 1.125 C1.6875 1.785 1.6875 2.445 1.6875 3.125 C0.98882812 3.24617187 0.29015625 3.36734375 -0.4296875 3.4921875 C-1.33976562 3.65976563 -2.24984375 3.82734375 -3.1875 4 C-4.09242188 4.16242188 -4.99734375 4.32484375 -5.9296875 4.4921875 C-8.47755988 4.95544703 -8.47755988 4.95544703 -10.3125 7.125 C-9.73905063 4.25775314 -9.4510485 3.2635485 -7.3125 1.125 C-3.01061321 -1.13915094 -3.01061321 -1.13915094 0 0 Z " fill="#F9EC05" transform="translate(463.3125,137.875)"/>
<path d="M0 0 C9.59453303 1.74259681 9.59453303 1.74259681 13 5 C7.34605369 5.34615998 3.96993194 4.43425238 -1 2 C-0.67 1.34 -0.34 0.68 0 0 Z " fill="#B31F25" transform="translate(48,63)"/>
<path d="M0 0 C1.32 0.33 2.64 0.66 4 1 C2.625 2.5 2.625 2.5 1 4 C0.34 4 -0.32 4 -1 4 C-0.52060632 8.71403788 -0.03165952 12.66579301 2 17 C0 15.625 0 15.625 -2 13 C-2.69707949 8.04749342 -2.80908387 4.2136258 0 0 Z " fill="#F8A344" transform="translate(381,385)"/>
<path d="M0 0 C-3.96 1.98 -7.92 3.96 -12 6 C-12 5.01 -12 4.02 -12 3 C-10.75823305 2.29773859 -9.50614401 1.61370891 -8.25 0.9375 C-7.20585937 0.36322266 -7.20585937 0.36322266 -6.140625 -0.22265625 C-4 -1 -4 -1 0 0 Z " fill="#262626" transform="translate(340,213)"/>
<path d="M0 0 C1.26026798 2.52053595 0.91874445 3.8542098 0.5625 6.625 C0.40974609 7.85089844 0.40974609 7.85089844 0.25390625 9.1015625 C0.17011719 9.72804688 0.08632812 10.35453125 0 11 C-0.66 11 -1.32 11 -2 11 C-3.60725635 7.78548731 -3.05748185 4.56387464 -3 1 C-2.01 0.67 -1.02 0.34 0 0 Z " fill="#91CA68" transform="translate(239,86)"/>
<path d="M0 0 C4.455 0.99 4.455 0.99 9 2 C9 2.66 9 3.32 9 4 C5.67465243 5.10844919 3.37817425 4.84454356 0 4 C0 2.68 0 1.36 0 0 Z " fill="#BC761E" transform="translate(386,367)"/>
<path d="M0 0 C0.33 0 0.66 0 1 0 C1.66 5.28 2.32 10.56 3 16 C2.34 16 1.68 16 1 16 C0.63409254 14.27327966 0.28277805 12.54346345 -0.0625 10.8125 C-0.35833984 9.36810547 -0.35833984 9.36810547 -0.66015625 7.89453125 C-1.00423947 4.96389138 -0.74164697 2.83692932 0 0 Z " fill="#333333" transform="translate(253,214)"/>
<path d="M0 0 C-1.43294498 0.84114171 -2.87154405 1.67265687 -4.3125 2.5 C-5.51326172 3.19609375 -5.51326172 3.19609375 -6.73828125 3.90625 C-9 5 -9 5 -12 5 C-12 4.34 -12 3.68 -12 3 C-10.75823305 2.29773859 -9.50614401 1.61370891 -8.25 0.9375 C-7.20585937 0.36322266 -7.20585937 0.36322266 -6.140625 -0.22265625 C-3.63859372 -1.1312406 -2.4667645 -0.88336837 0 0 Z " fill="#2A2A2A" transform="translate(306,229)"/>
<path d="M0 0 C0 0.66 0 1.32 0 2 C-1.23884319 2.72767003 -2.49168341 3.43154815 -3.75 4.125 C-4.79414063 4.71667969 -4.79414063 4.71667969 -5.859375 5.3203125 C-8 6 -8 6 -10.265625 5.1171875 C-10.83796875 4.74851563 -11.4103125 4.37984375 -12 4 C-10.75539217 3.32332002 -9.50403104 2.65905281 -8.25 2 C-7.55390625 1.62875 -6.8578125 1.2575 -6.140625 0.875 C-4 0 -4 0 0 0 Z " fill="#333333" transform="translate(430,169)"/>
<path d="M0 0 C0.99 0.33 1.98 0.66 3 1 C0.22719294 4.08089673 -2.06326356 5.68775452 -6 7 C-6 6.01 -6 5.02 -6 4 C-3.1875 1.75 -3.1875 1.75 0 0 Z " fill="#383838" transform="translate(183,348)"/>
<path d="M0 0 C0.66 0.33 1.32 0.66 2 1 C-1.3 4.3 -4.6 7.6 -8 11 C-8.33 10.01 -8.66 9.02 -9 8 C-6.03 5.36 -3.06 2.72 0 0 Z " fill="#8DC862" transform="translate(246,72)"/>
<path d="M0 0 C2.97 0 5.94 0 9 0 C8.01 1.485 8.01 1.485 7 3 C4.69 2.67 2.38 2.34 0 2 C0 1.34 0 0.68 0 0 Z " fill="#E3881A" transform="translate(387,406)"/>
<path d="M0 0 C0.66 0.33 1.32 0.66 2 1 C2 1.66 2 2.32 2 3 C-0.75 4.625 -0.75 4.625 -4 6 C-6.203125 5.0859375 -6.203125 5.0859375 -8 4 C-6.71349294 3.30289269 -5.42059335 2.61757124 -4.125 1.9375 C-3.40570313 1.55464844 -2.68640625 1.17179688 -1.9453125 0.77734375 C-1.30335938 0.52082031 -0.66140625 0.26429688 0 0 Z " fill="#3B3B3B" transform="translate(386,188)"/>
<path d="M0 0 C0.66 0.66 1.32 1.32 2 2 C0.41105928 3.58894072 -1.24801424 3.16998411 -3.4375 3.1875 C-4.64212891 3.20876953 -4.64212891 3.20876953 -5.87109375 3.23046875 C-8 3 -8 3 -10 1 C-8.37675914 0.77837671 -6.751279 0.57310197 -5.125 0.375 C-4.22007812 0.25898438 -3.31515625 0.14296875 -2.3828125 0.0234375 C-1.59648437 0.01570313 -0.81015625 0.00796875 0 0 Z " fill="#F39321" transform="translate(395,403)"/>
<path d="M0 0 C0.53625 0.226875 1.0725 0.45375 1.625 0.6875 C-5 4.6875 -5 4.6875 -8.375 4.6875 C-8.375 4.0275 -8.375 3.3675 -8.375 2.6875 C-2.95961538 -0.38942308 -2.95961538 -0.38942308 0 0 Z " fill="#262626" transform="translate(378.375,193.3125)"/>
<path d="M0 0 C1 3 1 3 0.00390625 5.04296875 C-0.47175781 5.75066406 -0.94742187 6.45835937 -1.4375 7.1875 C-1.91058594 7.90292969 -2.38367188 8.61835938 -2.87109375 9.35546875 C-3.24363281 9.89816406 -3.61617188 10.44085938 -4 11 C-4.66 10.01 -5.32 9.02 -6 8 C-4.73046875 6.50260417 -3.4609375 5.00520833 -2.19140625 3.5078125 C-0.9121848 1.99405921 -0.9121848 1.99405921 0 0 Z " fill="#ADA313" transform="translate(480,163)"/>
<path d="M0 0 C0.33 0 0.66 0 1 0 C1.0825 1.051875 1.165 2.10375 1.25 3.1875 C2.05320762 7.27047209 3.19334709 9.0122727 6 12 C1.125 11.125 1.125 11.125 0 10 C-0.07205511 8.31391034 -0.08386068 6.62499341 -0.0625 4.9375 C-0.05347656 4.01839844 -0.04445313 3.09929687 -0.03515625 2.15234375 C-0.02355469 1.44207031 -0.01195312 0.73179687 0 0 Z " fill="#F9EB0B" transform="translate(452,146)"/>
<path d="M0 0 C3.63 0 7.26 0 11 0 C10.67 0.66 10.34 1.32 10 2 C7.71484375 2.4140625 7.71484375 2.4140625 4.9375 2.625 C3.55884766 2.73714844 3.55884766 2.73714844 2.15234375 2.8515625 C1.44207031 2.90054688 0.73179687 2.94953125 0 3 C0 2.01 0 1.02 0 0 Z " fill="#D3C500" transform="translate(454,131)"/>
<path d="M0 0 C1.31625194 2.63250388 0.74813658 3.80179056 0.0625 6.625 C-0.13214844 7.44226563 -0.32679687 8.25953125 -0.52734375 9.1015625 C-0.68332031 9.72804688 -0.83929688 10.35453125 -1 11 C-3 9 -3 9 -3.3125 5.5 C-3.209375 4.345 -3.10625 3.19 -3 2 C-2.01 1.34 -1.02 0.68 0 0 Z " fill="#E61B22" transform="translate(39,86)"/>
<path d="M0 0 C0.99 0.33 1.98 0.66 3 1 C0.63707344 3.52588702 -0.66462511 4.88820837 -4 6 C-4.66 5.34 -5.32 4.68 -6 4 C-3.1875 1.9375 -3.1875 1.9375 0 0 Z " fill="#3A3A3A" transform="translate(215,326)"/>
<path d="M0 0 C0.53625 0.2475 1.0725 0.495 1.625 0.75 C-3.55078125 3.97265625 -3.55078125 3.97265625 -5.375 4.75 C-6.365 4.42 -7.355 4.09 -8.375 3.75 C-2.95961538 -0.31153846 -2.95961538 -0.31153846 0 0 Z " fill="#272727" transform="translate(359.375,202.25)"/>
<path d="M0 0 C-2.46278801 2.46278801 -4.70676982 2.99771255 -8 4 C-8.66 3.34 -9.32 2.68 -10 2 C-3.375 -1.125 -3.375 -1.125 0 0 Z " fill="#383838" transform="translate(409,180)"/>
<path d="M0 0 C0 0.66 0 1.32 0 2 C-0.763125 2.2475 -1.52625 2.495 -2.3125 2.75 C-5.2364045 4.10995558 -6.30004356 5.31585826 -8 8 C-7.67 5.69 -7.34 3.38 -7 1 C-4.50935112 0.31292445 -2.62113708 0 0 0 Z " fill="#F37E60" transform="translate(51,86)"/>
<path d="M0 0 C0.33 0 0.66 0 1 0 C1 3.63 1 7.26 1 11 C0.01 11 -0.98 11 -2 11 C-1.34 7.37 -0.68 3.74 0 0 Z " fill="#CECECE" transform="translate(148,266)"/>
<path d="M0 0 C-0.1875 1.875 -0.1875 1.875 -1 4 C-4.37823976 5.87679987 -7.17632299 6.21849583 -11 6 C-10.443125 5.7525 -9.88625 5.505 -9.3125 5.25 C-6.84535202 4.00800235 -6.84535202 4.00800235 -4.375 1.875 C-2 0 -2 0 0 0 Z " fill="#EE4A37" transform="translate(62,100)"/>
<path d="M0 0 C4.75 1.875 4.75 1.875 7 3 C6.67 3.99 6.34 4.98 6 6 C2.535 4.02 2.535 4.02 -1 2 C-0.67 1.34 -0.34 0.68 0 0 Z " fill="#373737" transform="translate(205,216)"/>
<path d="M0 0 C0 0.66 0 1.32 0 2 C-3.63 1.67 -7.26 1.34 -11 1 C-6.46780033 -1.26609984 -4.82227075 -0.92735976 0 0 Z " fill="#89C75D" transform="translate(262,69)"/>
<path d="M0 0 C1.46726798 3.81489674 0.43336419 6.29011622 -1 10 C-1.33 10 -1.66 10 -2 10 C-2.25 3.375 -2.25 3.375 0 0 Z " fill="#E58A1A" transform="translate(377,387)"/>
<path d="M0 0 C3.465 1.98 3.465 1.98 7 4 C7 4.33 7 4.66 7 5 C5.35 5 3.7 5 2 5 C1.34 3.35 0.68 1.7 0 0 Z " fill="#C17D26" transform="translate(396,370)"/>
<path d="M0 0 C0 0.66 0 1.32 0 2 C-4.38461538 5 -4.38461538 5 -7 5 C-5.64703851 0.94111554 -4.27479763 0 0 0 Z " fill="#2C2C2C" transform="translate(211,331)"/>
<path d="M0 0 C0.66 0.33 1.32 0.66 2 1 C2 1.66 2 2.32 2 3 C0.02 3.66 -1.96 4.32 -4 5 C-4.66 4.34 -5.32 3.68 -6 3 C-4.03533587 1.93224776 -2.03144641 0.93446535 0 0 Z " fill="#3B3B3B" transform="translate(310,224)"/>
<path d="M0 0 C1.62418745 -0.08090971 3.24951745 -0.13914995 4.875 -0.1875 C5.77992188 -0.22230469 6.68484375 -0.25710937 7.6171875 -0.29296875 C8.79667969 -0.14794922 8.79667969 -0.14794922 10 0 C10.66 0.99 11.32 1.98 12 3 C6.06 2.01 6.06 2.01 0 1 C0 0.67 0 0.34 0 0 Z " fill="#FEF237" transform="translate(457,141)"/>
</svg>
